<?xml version="1.0" encoding="UTF-8"?>
<svg xmlns="http://www.w3.org/2000/svg" viewBox="0 0 980 820" role="img" aria-labelledby="api-arch-title api-arch-desc">
  <title id="api-arch-title">API Architecture</title>
  <desc id="api-arch-desc">REST API surface of the assessment backend grouped by customers, suppliers, employees, and chat endpoints.</desc>

  <defs>
    <marker id="api-arrow" markerWidth="8" markerHeight="8" refX="7" refY="4" orient="auto">
      <path d="M0,0 L8,4 L0,8 Z" fill="#1565c0"/>
    </marker>
  </defs>

  <rect x="10" y="10" width="960" height="800" rx="10" fill="#ffffff" stroke="#e0e0e0"/>

  <text x="28" y="42" font-family="Segoe UI, system-ui, sans-serif" font-size="18" font-weight="600" fill="#333333">API Architecture</text>
  <text x="28" y="62" font-family="Segoe UI, system-ui, sans-serif" font-size="12" fill="#777777">Minimal APIs | OpenAPI/Swagger | MediatR handlers</text>

  <!-- client -->
  <rect x="24" y="82" width="932" height="88" rx="6" fill="#f7f9fc" stroke="#e8edf5"/>
  <g font-family="Segoe UI, system-ui, sans-serif" text-anchor="middle">
    <rect x="120" y="98" width="200" height="56" rx="4" fill="#ffffff" stroke="#bdbdbd"/>
    <text x="220" y="122" font-size="13" font-weight="600" fill="#222222">React Frontend</text>
    <text x="220" y="142" font-size="11" fill="#555555">localhost:10000</text>

    <line x1="320" y1="126" x2="420" y2="126" stroke="#1565c0" stroke-width="1.5" marker-end="url(#api-arrow)"/>
    <text x="370" y="118" font-size="10" fill="#555555" text-anchor="middle">proxy /api</text>

    <rect x="420" y="98" width="200" height="56" rx="4" fill="#ffffff" stroke="#1565c0" stroke-width="1.5"/>
    <text x="520" y="122" font-size="13" font-weight="600" fill="#1565c0">ASP.NET Backend</text>
    <text x="520" y="142" font-size="11" fill="#555555">localhost:5000</text>

    <rect x="660" y="98" width="220" height="56" rx="4" fill="#f5f5f5" stroke="#bdbdbd"/>
    <text x="770" y="122" font-size="13" font-weight="600" fill="#222222">MapGroup(&quot;api&quot;)</text>
    <text x="770" y="142" font-size="11" fill="#555555">mediator.Send(query)</text>
  </g>

  <!-- resource groups -->
  <rect x="24" y="188" width="932" height="548" rx="6" fill="#fafafa" stroke="#ececec"/>
  <text x="34" y="208" font-family="Segoe UI, system-ui, sans-serif" font-size="11" font-weight="600" fill="#888888">ENDPOINTS</text>

  <!-- Customers -->
  <g font-family="Segoe UI, system-ui, sans-serif" font-size="11" fill="#222222">
    <rect x="48" y="224" width="210" height="488" rx="6" fill="#ffffff" stroke="#bdbdbd"/>
    <text x="153" y="248" font-size="13" font-weight="600" text-anchor="middle" fill="#1565c0">Customers</text>

    <rect x="62" y="262" width="36" height="18" rx="3" fill="#e8f5e9" stroke="#a5d6a7"/><text x="80" y="275" font-size="10" font-weight="600" fill="#2e7d32" text-anchor="middle">GET</text>
    <text x="106" y="275" fill="#333333">/api/customers/list</text>

    <rect x="62" y="288" width="36" height="18" rx="3" fill="#e8f5e9" stroke="#a5d6a7"/><text x="80" y="301" font-size="10" font-weight="600" fill="#2e7d32" text-anchor="middle">GET</text>
    <text x="106" y="301" fill="#333333">/api/customers/{id}</text>

    <rect x="62" y="314" width="36" height="18" rx="3" fill="#e8f5e9" stroke="#a5d6a7"/><text x="80" y="327" font-size="10" font-weight="600" fill="#2e7d32" text-anchor="middle">GET</text>
    <text x="106" y="327" fill="#333333">.../documents</text>

    <rect x="62" y="340" width="36" height="18" rx="3" fill="#e8f5e9" stroke="#a5d6a7"/><text x="80" y="353" font-size="10" font-weight="600" fill="#2e7d32" text-anchor="middle">GET</text>
    <text x="106" y="353" fill="#333333">.../documents/{id}</text>

    <rect x="62" y="366" width="36" height="18" rx="3" fill="#e8f5e9" stroke="#a5d6a7"/><text x="80" y="379" font-size="10" font-weight="600" fill="#2e7d32" text-anchor="middle">GET</text>
    <text x="106" y="379" fill="#333333">.../content</text>

    <rect x="62" y="392" width="36" height="18" rx="3" fill="#e3f2fd" stroke="#90caf9"/><text x="80" y="405" font-size="10" font-weight="600" fill="#1565c0" text-anchor="middle">POST</text>
    <text x="106" y="405" fill="#333333">.../documents</text>

    <text x="62" y="432" font-size="10" fill="#888888">list: pagination + search</text>
    <text x="62" y="450" font-size="10" fill="#888888">detail: customer by id</text>
    <text x="62" y="468" font-size="10" fill="#888888">docs: list, preview, download</text>
    <text x="62" y="486" font-size="10" fill="#888888">upload: .txt/.md, max 1 MB</text>
  </g>

  <!-- Suppliers -->
  <g font-family="Segoe UI, system-ui, sans-serif" font-size="11" fill="#222222">
    <rect x="274" y="224" width="210" height="488" rx="6" fill="#ffffff" stroke="#bdbdbd"/>
    <text x="379" y="248" font-size="13" font-weight="600" text-anchor="middle" fill="#1565c0">Suppliers</text>

    <rect x="288" y="262" width="36" height="18" rx="3" fill="#e8f5e9" stroke="#a5d6a7"/><text x="306" y="275" font-size="10" font-weight="600" fill="#2e7d32" text-anchor="middle">GET</text>
    <text x="332" y="275" fill="#333333">/api/suppliers/list</text>

    <rect x="288" y="288" width="36" height="18" rx="3" fill="#e8f5e9" stroke="#a5d6a7"/><text x="306" y="301" font-size="10" font-weight="600" fill="#2e7d32" text-anchor="middle">GET</text>
    <text x="332" y="301" fill="#333333">/api/suppliers/{id}</text>

    <rect x="288" y="314" width="36" height="18" rx="3" fill="#e8f5e9" stroke="#a5d6a7"/><text x="306" y="327" font-size="10" font-weight="600" fill="#2e7d32" text-anchor="middle">GET</text>
    <text x="332" y="327" fill="#333333">.../documents</text>

    <rect x="288" y="340" width="36" height="18" rx="3" fill="#e8f5e9" stroke="#a5d6a7"/><text x="306" y="353" font-size="10" font-weight="600" fill="#2e7d32" text-anchor="middle">GET</text>
    <text x="332" y="353" fill="#333333">.../documents/{id}</text>

    <rect x="288" y="366" width="36" height="18" rx="3" fill="#e8f5e9" stroke="#a5d6a7"/><text x="306" y="379" font-size="10" font-weight="600" fill="#2e7d32" text-anchor="middle">GET</text>
    <text x="332" y="379" fill="#333333">.../content</text>

    <rect x="288" y="392" width="36" height="18" rx="3" fill="#e3f2fd" stroke="#90caf9"/><text x="306" y="405" font-size="10" font-weight="600" fill="#1565c0" text-anchor="middle">POST</text>
    <text x="332" y="405" fill="#333333">.../documents</text>

    <text x="288" y="432" font-size="10" fill="#888888">list: filter by name</text>
    <text x="288" y="450" font-size="10" fill="#888888">detail: supplier by id</text>
    <text x="288" y="468" font-size="10" fill="#888888">docs: list, preview, download</text>
    <text x="288" y="486" font-size="10" fill="#888888">upload: .txt/.md, max 1 MB</text>
  </g>

  <!-- Employees -->
  <g font-family="Segoe UI, system-ui, sans-serif" font-size="11" fill="#222222">
    <rect x="500" y="224" width="210" height="488" rx="6" fill="#ffffff" stroke="#bdbdbd"/>
    <text x="605" y="248" font-size="13" font-weight="600" text-anchor="middle" fill="#1565c0">Employees</text>

    <rect x="514" y="262" width="36" height="18" rx="3" fill="#e8f5e9" stroke="#a5d6a7"/><text x="532" y="275" font-size="10" font-weight="600" fill="#2e7d32" text-anchor="middle">GET</text>
    <text x="558" y="275" fill="#333333">/api/employees/list</text>

    <text x="514" y="310" font-size="10" fill="#888888">pagination (page, pageSize)</text>
    <text x="514" y="328" font-size="10" fill="#888888">search by name fields</text>
    <text x="514" y="346" font-size="10" fill="#888888">includes department</text>
  </g>

  <!-- Chat -->
  <g font-family="Segoe UI, system-ui, sans-serif" font-size="11" fill="#222222">
    <rect x="726" y="224" width="210" height="488" rx="6" fill="#ffffff" stroke="#bdbdbd"/>
    <text x="831" y="248" font-size="13" font-weight="600" text-anchor="middle" fill="#1565c0">Chat</text>

    <rect x="740" y="262" width="36" height="18" rx="3" fill="#e8f5e9" stroke="#a5d6a7"/><text x="758" y="275" font-size="10" font-weight="600" fill="#2e7d32" text-anchor="middle">GET</text>
    <text x="784" y="275" fill="#333333">/api/chat/status</text>

    <rect x="740" y="288" width="36" height="18" rx="3" fill="#e3f2fd" stroke="#90caf9"/><text x="758" y="301" font-size="10" font-weight="600" fill="#1565c0" text-anchor="middle">POST</text>
    <text x="784" y="301" fill="#333333">/api/chat</text>

    <rect x="740" y="314" width="36" height="18" rx="3" fill="#e8f5e9" stroke="#a5d6a7"/><text x="758" y="327" font-size="10" font-weight="600" fill="#2e7d32" text-anchor="middle">GET</text>
    <text x="784" y="327" fill="#333333">/api/chat/tools</text>

    <rect x="740" y="340" width="36" height="18" rx="3" fill="#e3f2fd" stroke="#90caf9"/><text x="758" y="353" font-size="10" font-weight="600" fill="#1565c0" text-anchor="middle">POST</text>
    <text x="784" y="353" fill="#333333">/api/chat/tools/invoke</text>

    <text x="740" y="390" font-size="10" fill="#888888">status: OpenAI configured?</text>
    <text x="740" y="408" font-size="10" fill="#888888">chat: multi-turn + OpenAI</text>
    <text x="740" y="426" font-size="10" fill="#888888">tools: list data-retrieval tools</text>
    <text x="740" y="444" font-size="10" fill="#888888">invoke: run tool directly</text>
  </g>

  <!-- arrows from gateway to groups -->
  <g stroke="#1565c0" stroke-width="1.5" fill="none" opacity="0.35">
    <line x1="770" y1="154" x2="153" y2="224" marker-end="url(#api-arrow)"/>
    <line x1="770" y1="154" x2="379" y2="224" marker-end="url(#api-arrow)"/>
    <line x1="770" y1="154" x2="605" y2="224" marker-end="url(#api-arrow)"/>
    <line x1="770" y1="154" x2="831" y2="224" marker-end="url(#api-arrow)"/>
  </g>

  <!-- footer -->
  <rect x="24" y="752" width="932" height="48" rx="6" fill="#eef2f7" stroke="#d8dee8"/>
  <g font-family="Segoe UI, system-ui, sans-serif" font-size="12" fill="#444444" text-anchor="middle">
    <text x="200" y="776" font-weight="600">17 endpoints</text>
    <text x="200" y="792" font-size="10" fill="#888888">GET 13 | POST 4</text>

    <text x="490" y="776" font-weight="600">Swagger UI</text>
    <text x="490" y="792" font-size="10" fill="#888888">/swagger (auto-generated OpenAPI)</text>

    <text x="780" y="776" font-weight="600">Error responses</text>
    <text x="780" y="792" font-size="10" fill="#888888">404 not found | 400 bad request | 503 chat unavailable</text>
  </g>
</svg>
